<svg xmlns="http://www.w3.org/2000/svg" version="1.1" xmlns:xlink="http://www.w3.org/1999/xlink" xmlns:svgjs="http://svgjs.dev/svgjs" width="100%" height="100%" viewBox="0 0 1000 600"><rect width="1000" height="600" x="0" y="0" fill="#e2d1f9"/><g><circle r="166.66666666666666" cx="385.2648569742838" cy="407.48714789861594" fill="#317773" transform="matrix(0.5718252279319922,0,0,0.5718252279319922,0,66.98856533826402)"/><path d="M347.8672919580879 482.4871646851273L347.8672919580879 482.4871646851273Q343.4486417938944 482.4871646851273 341.0198473327814 480.08763280788315Q338.59105287166847 477.6588383467702 338.59105287166847 473.00608751162605L338.59105287166847 473.00608751162605L338.59105287166847 341.968236947001Q338.59105287166847 337.34474869572574 341.0198473327814 334.91595423461274Q343.4486417938944 332.48715977349974 348.07213004516973 332.48715977349974L348.07213004516973 332.48715977349974L424.56452427829385 332.48715977349974Q428.13455951029124 332.48715977349974 430.03662746176525 334.38922772497375Q431.93869541323926 336.29129567644776 431.93869541323926 339.6564928213633L431.93869541323926 339.6564928213633Q431.93869541323926 343.2265280533607 430.03662746176525 345.1285960048347Q428.13455951029124 347.03066395630873 424.56452427829385 347.03066395630873L424.56452427829385 347.03066395630873L355.8852399381476 347.03066395630873L355.8852399381476 398.8546999880084L420.14587411410037 398.8546999880084Q423.71590934609776 398.8546999880084 425.7350276330471 400.7567679394824Q427.7248833361276 402.6588358909564 427.7248833361276 406.024033035872L427.7248833361276 406.024033035872Q427.7248833361276 409.5940682678694 425.7350276330471 411.4961362193434Q423.71590934609776 413.3982041708174 420.14587411410037 413.3982041708174L420.14587411410037 413.3982041708174L355.8852399381476 413.3982041708174L355.8852399381476 473.00608751162605Q355.8852399381476 482.4871646851273 347.8672919580879 482.4871646851273Z " fill="#e2d1f9" transform="matrix(0.5718252279319922,0,0,0.5718252279319922,0,66.98856533826402)"/><path d="M644.5140460229632 482.04950634960363L644.5140460229632 482.04950634960363Q640.1082887020989 482.04950634960363 637.6865810356635 479.65697588396876Q635.2648733692281 477.23526821753336 635.2648733692281 472.5960932902656L635.2648733692281 472.5960932902656L635.2648733692281 341.9405881059581Q635.2648733692281 337.3305903794908 637.6865810356635 334.90888271305545Q640.1082887020989 332.4871750466201 644.7182864285662 332.4871750466201L644.7182864285662 332.4871750466201L720.9874893208797 332.4871750466201Q724.5471078185317 332.4871750466201 726.4436258705593 334.3836930986478Q728.340143922587 336.2802111506755 728.340143922587 339.63558924272445L728.340143922587 339.63558924272445Q728.340143922587 343.1952077403764 726.4436258705593 345.09172579240413Q724.5471078185317 346.9882438444318 720.9874893208797 346.9882438444318L720.9874893208797 346.9882438444318L652.5085990422799 346.9882438444318L652.5085990422799 398.6610664619862L716.5817320000153 398.6610664619862Q720.1413504976673 398.6610664619862 722.1545773528967 400.5575845140139Q724.1386270073257 402.45410256604157 724.1386270073257 405.8094806580906L724.1386270073257 405.8094806580906Q724.1386270073257 409.36909915574256 722.1545773528967 411.2656172077702Q720.1413504976673 413.16213525979794 716.5817320000153 413.16213525979794L716.5817320000153 413.16213525979794L652.5085990422799 413.16213525979794L652.5085990422799 472.5960932902656Q652.5085990422799 482.04950634960363 644.5140460229632 482.04950634960363ZM776.015690030483 482.48716436161004L776.015690030483 482.48716436161004Q765.5118977423297 482.48716436161004 757.2255727150088 478.37317904875Q748.9392476876877 474.28837093669034 744.095832354817 467.139956740586Q739.2524170219464 459.9915425444816 739.2524170219464 451.18002790275295L739.2524170219464 451.18002790275295Q739.2524170219464 439.83009679138723 745.0295027804307 433.32358101289225Q750.806588538915 426.81706523439726 764.1697465055101 424.07440835915725Q777.5037272713048 421.36092868471763 800.6120703052421 421.36092868471763L800.6120703052421 421.36092868471763L810.0654833645801 421.36092868471763L810.0654833645801 432.47744218967995L800.8163107108452 432.47744218967995Q783.8060026441968 432.47744218967995 774.0316403760542 434.05301103290293Q764.2572781079114 435.6285798761259 760.3767104014547 439.4216159801813Q756.4961426949981 443.18547488343626 756.4961426949981 450.12964867393765L756.4961426949981 450.12964867393765Q756.4961426949981 458.7369229100633 762.4774688590854 464.193059459743Q768.4587950231727 469.678373210223 778.7583469057231 469.678373210223L778.7583469057231 469.678373210223Q787.1613807362457 469.678373210223 793.5803649123395 465.68109670056464Q799.9701718876328 461.68382019090626 803.6464991884865 454.7396464004049Q807.3228264893402 447.824649810704 807.3228264893402 438.77971756257193L807.3228264893402 438.77971756257193L807.3228264893402 414.8252357054222Q807.3228264893402 401.8122041484322 802.0709303452634 396.03511838994785Q796.8190342011868 390.25803263146355 784.8563818730122 390.25803263146355L784.8563818730122 390.25803263146355Q777.5037272713048 390.25803263146355 770.1510726695974 392.1545506834912Q762.7984180678901 394.0510687355189 754.5996246429704 398.25258565078025L754.5996246429704 398.25258565078025Q751.6527273621274 399.71144569080155 749.5519689044967 399.1862560763939Q747.4512104468661 398.6610664619862 746.1965908124478 396.9687888155615Q744.9419711780295 395.30568836993723 744.7377307724264 393.08822110910484Q744.504313166023 390.8999310490729 745.67140119804 388.79917259144224Q746.8384892300571 386.6984141338116 749.3477284988937 385.4146172985928L749.3477284988937 385.4146172985928Q758.5969011526288 380.8046195721255 767.6126561999604 378.7038611144948Q776.6575884480924 376.60310265686417 784.8563818730122 376.60310265686417L784.8563818730122 376.60310265686417Q798.0736538356051 376.60310265686417 806.7101052725312 380.9213283753272Q815.3173795086568 385.2103768929898 819.5188964239181 393.9343599323172Q823.7204133391795 402.6583429716446 823.7204133391795 416.3132729462439L823.7204133391795 416.3132729462439L823.7204133391795 473.237991707875Q823.7204133391795 477.4395086231363 821.7071864839502 479.74450748636997Q819.7231368295212 482.04950634960363 815.9301007254658 482.04950634960363L815.9301007254658 482.04950634960363Q811.9620014166078 482.04950634960363 809.8612429589772 479.74450748636997Q807.7604845013466 477.4395086231363 807.7604845013466 473.237991707875L807.7604845013466 473.237991707875L807.7604845013466 456.8404048580356L809.6278253525737 456.8404048580356Q807.9647249069495 464.83495787735234 803.2380183772805 470.49533483263497Q798.5113118476115 476.184888988718 791.5671380571101 479.336026675164Q784.6521414674091 482.48716436161004 776.015690030483 482.48716436161004ZM892.1993036177793 482.04950634960363L892.1993036177793 482.04950634960363Q888.6396851201273 482.04950634960363 885.8970282448872 480.06545669517465Q883.1543713696473 478.0814070407457 881.2870305184199 473.87989012548434L881.2870305184199 473.87989012548434L844.9322383210892 389.0034129970452Q843.4733782810679 385.8522753105992 843.8818590922739 383.10961843535915Q844.2903399034799 380.39613876091954 846.3910983611105 378.7038611144948Q848.4918568187412 377.0115834680701 852.2848929227966 377.0115834680701L852.2848929227966 377.0115834680701Q855.6402710148456 377.0115834680701 857.5367890668732 378.4996207088919Q859.433307118901 379.95848074891313 860.8921671589222 383.75151685296856L860.8921671589222 383.75151685296856L895.3504413042253 467.9860955637983L889.6900643489427 467.9860955637983L924.7610597110547 383.75151685296856Q926.219919751076 379.95848074891313 928.1164378031037 378.4996207088919Q930.0129558551314 377.0115834680701 933.5725743527832 377.0115834680701L933.5725743527832 377.0115834680701Q936.9571296456327 377.0115834680701 938.7369388944587 378.7038611144948Q940.5167481432848 380.39613876091954 940.8376973520894 383.0220868329579Q941.1586465608941 385.6480349049962 939.8748497256754 388.79917259144224L939.8748497256754 388.79917259144224L903.1115767171386 473.87989012548434Q901.6527166771173 478.0814070407457 898.822528199476 480.06545669517465Q895.9923397218347 482.04950634960363 892.1993036177793 482.04950634960363ZM970.7735053733264 481.6410255383977L970.7735053733264 481.6410255383977Q966.5719884580651 481.6410255383977 964.4712300004344 479.21931787196235Q962.3704715428037 476.79761020552695 962.3704715428037 472.3918528846627L962.3704715428037 472.3918528846627L962.3704715428037 386.4649965274082Q962.3704715428037 382.05923920654385 964.4712300004344 379.7542403433102Q966.5719884580651 377.4492414800765 970.7735053733264 377.4492414800765L970.7735053733264 377.4492414800765Q974.7707818829848 377.4492414800765 977.0757807462185 379.7542403433102Q979.3807796094521 382.05923920654385 979.3807796094521 386.4649965274082L979.3807796094521 386.4649965274082L979.3807796094521 472.3918528846627Q979.3807796094521 476.79761020552695 977.1633123486197 479.21931787196235Q974.9750222885878 481.6410255383977 970.7735053733264 481.6410255383977ZM970.7735053733264 353.9032404341328L970.7735053733264 353.9032404341328Q965.5216092292497 353.9032404341328 962.5747119484067 351.07305195649144Q959.6278146675637 348.2428634788501 959.6278146675637 343.3994481459794L959.6278146675637 343.3994481459794Q959.6278146675637 338.38096960830615 962.5747119484067 335.7550215362678Q965.5216092292497 333.12907346422946 970.7735053733264 333.12907346422946L970.7735053733264 333.12907346422946Q976.229641923006 333.12907346422946 979.0598304006475 335.7550215362678Q981.8900188782887 338.38096960830615 981.8900188782887 343.3994481459794L981.8900188782887 343.3994481459794Q981.8900188782887 348.2428634788501 979.0598304006475 351.07305195649144Q976.229641923006 353.9032404341328 970.7735053733264 353.9032404341328ZM1054.366185666547 482.48716436161004L1054.366185666547 482.48716436161004Q1039.0481552463232 482.48716436161004 1027.9024645405607 475.74723097671165Q1016.7859510355981 469.03647479261366 1010.7754476707105 456.9571136612373Q1004.7941215066231 444.87775252986097 1004.7941215066231 428.917823692028L1004.7941215066231 428.917823692028Q1004.7941215066231 416.7217537574499 1008.149499598672 407.0641002925089Q1011.5340548915215 397.4064468275679 1018.0405706700165 390.5789818402682Q1024.5470864485114 383.75151685296856 1033.6795502990449 380.16272115451613Q1042.812014149578 376.60310265686417 1054.366185666547 376.60310265686417L1054.366185666547 376.60310265686417Q1061.9522578746576 376.60310265686417 1070.121874098777 378.90810152009783Q1078.3206675236966 381.21310038333144 1085.060600908595 386.9026545394145L1085.060600908595 386.9026545394145Q1087.1613593662255 388.36151457943583 1087.7740805830347 390.4622730370665Q1088.415979000644 392.56303149469716 1087.7740805830347 394.5762583499266Q1087.1613593662255 396.56030800435553 1085.673322125404 397.93163644197557Q1084.2144620853826 399.30296487959555 1081.9969948245503 399.50720528519855Q1079.8087047645183 399.71144569080155 1077.4745287004844 398.01916804437684L1077.4745287004844 398.01916804437684Q1072.0183921508046 393.8176511291155 1066.3580151955218 392.1545506834912Q1060.6684610394389 390.4622730370665 1055.4165648953622 390.4622730370665L1055.4165648953622 390.4622730370665Q1047.246948671243 390.4622730370665 1041.148913703954 393.08822110910484Q1035.0508787366648 395.7141691811432 1030.8493618214036 400.5575845140139Q1026.6478449061422 405.3718226460842 1024.4303776453098 412.5202368421886Q1022.2420875852778 419.6686510382929 1022.2420875852778 429.1220640976309L1022.2420875852778 429.1220640976309Q1022.2420875852778 447.3869917986976 1030.8493618214036 458.0074928900527Q1039.456636057529 468.6279939814077 1055.4165648953622 468.6279939814077L1055.4165648953622 468.6279939814077Q1060.6684610394389 468.6279939814077 1066.2413063923202 466.935716334983Q1071.8141517452016 465.2434386885583 1077.4745287004844 461.0419217732969L1077.4745287004844 461.0419217732969Q1079.8087047645183 459.3788213276727 1081.909463222149 459.58306173327566Q1084.0102216797795 459.7873021388786 1085.469081719801 461.15863057649864Q1086.9279417598223 462.5299590141187 1087.45313137423 464.63071747174934Q1087.9783209886375 466.73147592938 1087.3655997718286 468.715525583809Q1086.7237013542192 470.7287524390384 1084.6229428965885 472.1876124790597L1084.6229428965885 472.1876124790597Q1077.9121867124907 477.64374902873936 1069.917633693174 480.06545669517465Q1061.9522578746576 482.48716436161004 1054.366185666547 482.48716436161004ZM1148.6960758543241 482.48716436161004L1148.6960758543241 482.48716436161004Q1133.7865262453065 482.48716436161004 1122.874253145947 475.98064858311506Q1111.9328028457874 469.44495560381966 1105.9514766817001 457.59901207884667Q1099.9701505176126 445.7238913530733 1099.9701505176126 429.5305449088369L1099.9701505176126 429.5305449088369Q1099.9701505176126 417.36365217505926 1103.3255286096617 407.5892899069166Q1106.6809067017107 397.81492763877384 1113.1874224802057 390.8999310490729Q1119.723115459501 383.9557572585715 1128.6513389044314 380.2794299577178Q1137.5795623493616 376.60310265686417 1148.6960758543241 376.60310265686417L1148.6960758543241 376.60310265686417Q1163.6056254633418 376.60310265686417 1174.5470757635017 383.10961843535915Q1185.4593488628607 389.61613421385414 1191.4406750269482 401.49125493962754Q1197.4511783918358 413.3663756654009 1197.4511783918358 429.5305449088369L1197.4511783918358 429.5305449088369Q1197.4511783918358 441.72661484341495 1194.0666230989864 451.38426830835596Q1190.7112450069374 461.0419217732969 1184.2047292284424 468.10280436700003Q1177.6982134499474 475.1345097599027 1168.769990005017 478.81083706075634Q1159.8417665600869 482.48716436161004 1148.6960758543241 482.48716436161004ZM1148.6960758543241 468.8322343870107L1148.6960758543241 468.8322343870107Q1158.149488913662 468.8322343870107 1165.2979031097664 464.193059459743Q1172.4463173058707 459.58306173327566 1176.3268850123275 450.771547091547Q1180.2074527187842 441.93085524901795 1180.2074527187842 429.5305449088369L1180.2074527187842 429.5305449088369Q1180.2074527187842 410.41947838455786 1171.7168872858601 400.3533441084109Q1163.1971446521356 390.25803263146355 1148.6960758543241 390.25803263146355L1148.6960758543241 390.25803263146355Q1139.038422389383 390.25803263146355 1132.0067169964805 394.78049875552955Q1124.9750116035777 399.30296487959555 1121.0652666963206 407.9977707181225Q1117.184698989864 416.7217537574499 1117.184698989864 429.5305449088369L1117.184698989864 429.5305449088369Q1117.184698989864 448.43737102751294 1125.7919732259895 458.64939130766203Q1134.4284246629159 468.8322343870107 1148.6960758543241 468.8322343870107ZM1231.4717945251325 482.04950634960363L1231.4717945251325 482.04950634960363Q1227.2702776098713 482.04950634960363 1225.1695191522404 479.74450748636997Q1223.0687606946099 477.4395086231363 1223.0687606946099 473.237991707875L1223.0687606946099 473.237991707875L1223.0687606946099 385.6480349049962Q1223.0687606946099 381.4465179897349 1225.1695191522404 379.2290507289025Q1227.2702776098713 377.0115834680701 1231.2675541195294 377.0115834680701L1231.2675541195294 377.0115834680701Q1235.264830629188 377.0115834680701 1237.4531206892198 379.2290507289025Q1239.6705879500523 381.4465179897349 1239.6705879500523 385.6480349049962L1239.6705879500523 385.6480349049962L1239.6705879500523 403.70872220045993L1237.3655890868185 401.17030573082286Q1241.7713464076828 389.0034129970452 1251.7499490814287 382.7886692265545Q1261.7285517551743 376.60310265686417 1274.7415833121643 376.60310265686417L1274.7415833121643 376.60310265686417Q1286.9376532467425 376.60310265686417 1295.0197378684604 381.0088599777285Q1303.1018224901784 385.4146172985928 1307.0990989998365 394.34284074352314Q1311.096375509495 403.2710641884535 1311.096375509495 416.92599416305285L1311.096375509495 416.92599416305285L1311.096375509495 473.237991707875Q1311.096375509495 477.4395086231363 1308.8789082486626 479.74450748636997Q1306.6906181886307 482.04950634960363 1302.6933416789723 482.04950634960363L1302.6933416789723 482.04950634960363Q1298.4918247637108 482.04950634960363 1296.2743575028787 479.74450748636997Q1294.0860674428466 477.4395086231363 1294.0860674428466 473.237991707875L1294.0860674428466 473.237991707875L1294.0860674428466 417.9763733918682Q1294.0860674428466 403.70872220045993 1288.5132220899652 397.0854976187632Q1282.9403767370839 390.4622730370665 1270.744306802506 390.4622730370665L1270.744306802506 390.4622730370665Q1256.6808960167007 390.4622730370665 1248.3945709893796 399.1862560763939Q1240.0790687612582 407.91023911572125 1240.0790687612582 422.41130791353294L1240.0790687612582 422.41130791353294L1240.0790687612582 473.237991707875Q1240.0790687612582 482.04950634960363 1231.4717945251325 482.04950634960363ZM1350.5731281924714 481.4367851327947L1350.5731281924714 481.4367851327947Q1345.3212320483947 481.4367851327947 1342.1700943619487 478.168938643147Q1339.0189566755027 474.9302693542997 1339.0189566755027 469.882613615826L1339.0189566755027 469.882613615826Q1339.0189566755027 464.83495787735234 1342.1700943619487 461.56711138770464Q1345.3212320483947 458.32844209885735 1350.5731281924714 458.32844209885735L1350.5731281924714 458.32844209885735Q1355.825024336548 458.32844209885735 1358.8886304205928 461.56711138770464Q1361.9230593038371 464.83495787735234 1361.9230593038371 469.882613615826L1361.9230593038371 469.882613615826Q1361.9230593038371 474.9302693542997 1358.8886304205928 478.168938643147Q1355.825024336548 481.4367851327947 1350.5731281924714 481.4367851327947ZM1398.6863323123737 481.6410255383977L1398.6863323123737 481.6410255383977Q1394.4848153971125 481.6410255383977 1392.3840569394818 479.21931787196235Q1390.283298481851 476.79761020552695 1390.283298481851 472.3918528846627L1390.283298481851 472.3918528846627L1390.283298481851 386.4649965274082Q1390.283298481851 382.05923920654385 1392.3840569394818 379.7542403433102Q1394.4848153971125 377.4492414800765 1398.6863323123737 377.4492414800765L1398.6863323123737 377.4492414800765Q1402.683608822032 377.4492414800765 1404.9886076852656 379.7542403433102Q1407.2936065484994 382.05923920654385 1407.2936065484994 386.4649965274082L1407.2936065484994 386.4649965274082L1407.2936065484994 472.3918528846627Q1407.2936065484994 476.79761020552695 1405.1053164884677 479.21931787196235Q1402.8878492276351 481.6410255383977 1398.6863323123737 481.6410255383977ZM1398.6863323123737 353.9032404341328L1398.6863323123737 353.9032404341328Q1393.4344361682972 353.9032404341328 1390.487538887454 351.07305195649144Q1387.5698188074116 348.2428634788501 1387.5698188074116 343.3994481459794L1387.5698188074116 343.3994481459794Q1387.5698188074116 338.38096960830615 1390.487538887454 335.7550215362678Q1393.4344361682972 333.12907346422946 1398.6863323123737 333.12907346422946L1398.6863323123737 333.12907346422946Q1404.1424688620534 333.12907346422946 1407.001834540495 335.7550215362678Q1409.8320230181364 338.38096960830615 1409.8320230181364 343.3994481459794L1409.8320230181364 343.3994481459794Q1409.8320230181364 348.2428634788501 1407.001834540495 351.07305195649144Q1404.1424688620534 353.9032404341328 1398.6863323123737 353.9032404341328ZM1481.4620509831823 482.48716436161004L1481.4620509831823 482.48716436161004Q1466.5525013741646 482.48716436161004 1455.611051074005 475.98064858311506Q1444.6987779746457 469.44495560381966 1438.7174518105583 457.59901207884667Q1432.7361256464708 445.7238913530733 1432.7361256464708 429.5305449088369L1432.7361256464708 429.5305449088369Q1432.7361256464708 417.36365217505926 1436.09150373852 407.5892899069166Q1439.4468818305688 397.81492763877384 1445.953397609064 390.8999310490729Q1452.4599133875588 383.9557572585715 1461.3881368324892 380.2794299577178Q1470.3163602774196 376.60310265686417 1481.4620509831823 376.60310265686417L1481.4620509831823 376.60310265686417Q1496.3716005922 376.60310265686417 1507.3130508923596 383.10961843535915Q1518.2253239917188 389.61613421385414 1524.2066501558063 401.49125493962754Q1530.1879763198938 413.3663756654009 1530.1879763198938 429.5305449088369L1530.1879763198938 429.5305449088369Q1530.1879763198938 441.72661484341495 1526.8325982278445 451.38426830835596Q1523.4772201357957 461.0419217732969 1516.9707043573005 468.10280436700003Q1510.4641885788058 475.1345097599027 1501.5359651338756 478.81083706075634Q1492.607741688945 482.48716436161004 1481.4620509831823 482.48716436161004ZM1481.4620509831823 468.8322343870107L1481.4620509831823 468.8322343870107Q1490.9154640425202 468.8322343870107 1498.0638782386247 464.193059459743Q1505.212292434729 459.58306173327566 1509.0928601411856 450.771547091547Q1512.9734278476424 441.93085524901795 1512.9734278476424 429.5305449088369L1512.9734278476424 429.5305449088369Q1512.9734278476424 410.41947838455786 1504.4536852139179 400.3533441084109Q1495.963119780994 390.25803263146355 1481.4620509831823 390.25803263146355L1481.4620509831823 390.25803263146355Q1471.8043975182413 390.25803263146355 1464.7726921253386 394.78049875552955Q1457.7118095316355 399.30296487959555 1453.831241825179 407.9977707181225Q1449.9506741187222 416.7217537574499 1449.9506741187222 429.5305449088369L1449.9506741187222 429.5305449088369Q1449.9506741187222 448.43737102751294 1458.557948354848 458.64939130766203Q1467.1652225909736 468.8322343870107 1481.4620509831823 468.8322343870107Z " fill="#317773" transform="matrix(0.5718252279319922,0,0,0.5718252279319922,0,66.98856533826402)"/></g></svg>